<mxfile host="65bd71144e" modified="2020-12-28T14:40:33.885Z" agent="5.0 (Macintosh; Intel Mac OS X 10_15_7) AppleWebKit/537.36 (KHTML, like Gecko) Code/1.52.1 Chrome/83.0.4103.122 Electron/9.3.5 Safari/537.36" version="13.10.0" etag="eP5yKXHlBDv12fwBW_4t" type="embed">
    <diagram id="Li21PFZFTUvra_IuUZ19" name="Page-1">
        <mxGraphModel dx="641" dy="491" grid="1" gridSize="10" guides="1" tooltips="1" connect="1" arrows="1" fold="1" page="1" pageScale="1" pageWidth="850" pageHeight="1100" math="0" shadow="0">
            <root>
                <mxCell id="0"/>
                <mxCell id="1" parent="0"/>
                <mxCell id="4" style="edgeStyle=orthogonalEdgeStyle;rounded=0;orthogonalLoop=1;jettySize=auto;html=1;fillColor=none;strokeColor=#3399FF;fontColor=#007FFF;" edge="1" parent="1" source="2" target="3">
                    <mxGeometry relative="1" as="geometry"/>
                </mxCell>
                <mxCell id="2" value="" style="rounded=1;whiteSpace=wrap;html=1;fillColor=none;strokeColor=#3399FF;fontColor=#007FFF;" vertex="1" parent="1">
                    <mxGeometry x="383" y="20" width="85" height="20" as="geometry"/>
                </mxCell>
                <mxCell id="3" value="学生証？" style="rhombus;whiteSpace=wrap;html=1;fillColor=none;strokeColor=#3399FF;fontColor=#007FFF;" vertex="1" parent="1">
                    <mxGeometry x="385" y="70" width="80" height="60" as="geometry"/>
                </mxCell>
                <mxCell id="10" style="edgeStyle=orthogonalEdgeStyle;rounded=0;orthogonalLoop=1;jettySize=auto;html=1;entryX=0.5;entryY=0;entryDx=0;entryDy=0;fillColor=none;strokeColor=#3399FF;fontColor=#007FFF;" edge="1" parent="1" source="5" target="7">
                    <mxGeometry relative="1" as="geometry">
                        <Array as="points">
                            <mxPoint x="510" y="240"/>
                            <mxPoint x="510" y="240"/>
                        </Array>
                    </mxGeometry>
                </mxCell>
                <mxCell id="11" style="edgeStyle=orthogonalEdgeStyle;rounded=0;orthogonalLoop=1;jettySize=auto;html=1;fillColor=none;strokeColor=#3399FF;fontColor=#007FFF;" edge="1" parent="1" source="5" target="6">
                    <mxGeometry relative="1" as="geometry"/>
                </mxCell>
                <mxCell id="5" value="今までに登録された&lt;br&gt;ことのない学生証？" style="rhombus;whiteSpace=wrap;html=1;fillColor=none;strokeColor=#3399FF;fontColor=#007FFF;" vertex="1" parent="1">
                    <mxGeometry x="510" y="170" width="190" height="80" as="geometry"/>
                </mxCell>
                <mxCell id="6" value="その学生証から得たデータと入力されたデータを元にその人をデータベースに登録する" style="rounded=0;whiteSpace=wrap;html=1;fillColor=none;strokeColor=#3399FF;fontColor=#007FFF;" vertex="1" parent="1">
                    <mxGeometry x="525" y="370" width="160" height="60" as="geometry"/>
                </mxCell>
                <mxCell id="7" value="その学生証のIDと紐付けられているニックネームを変更" style="rounded=0;whiteSpace=wrap;html=1;fillColor=none;strokeColor=#3399FF;fontColor=#007FFF;" vertex="1" parent="1">
                    <mxGeometry x="450" y="270" width="120" height="60" as="geometry"/>
                </mxCell>
                <mxCell id="12" style="edgeStyle=orthogonalEdgeStyle;rounded=0;orthogonalLoop=1;jettySize=auto;html=1;entryX=0.465;entryY=0.012;entryDx=0;entryDy=0;entryPerimeter=0;exitX=1;exitY=0.5;exitDx=0;exitDy=0;fillColor=none;strokeColor=#3399FF;fontColor=#007FFF;" edge="1" parent="1" source="8" target="9">
                    <mxGeometry relative="1" as="geometry">
                        <mxPoint x="350" y="350" as="targetPoint"/>
                        <Array as="points">
                            <mxPoint x="349" y="200"/>
                        </Array>
                    </mxGeometry>
                </mxCell>
                <mxCell id="14" style="edgeStyle=orthogonalEdgeStyle;rounded=0;orthogonalLoop=1;jettySize=auto;html=1;entryX=0.5;entryY=0;entryDx=0;entryDy=0;fillColor=none;strokeColor=#3399FF;fontColor=#007FFF;" edge="1" parent="1" source="8" target="13">
                    <mxGeometry relative="1" as="geometry"/>
                </mxCell>
                <mxCell id="8" value="今までに登録された&lt;br&gt;ことのない交通系IC？" style="rhombus;whiteSpace=wrap;html=1;fillColor=none;strokeColor=#3399FF;fontColor=#007FFF;" vertex="1" parent="1">
                    <mxGeometry x="150" y="160" width="200" height="80" as="geometry"/>
                </mxCell>
                <mxCell id="9" value="その交通系ICのidmと紐付けられているニックネームを変更" style="rounded=0;whiteSpace=wrap;html=1;fillColor=none;strokeColor=#3399FF;fontColor=#007FFF;" vertex="1" parent="1">
                    <mxGeometry x="270" y="375" width="170" height="50" as="geometry"/>
                </mxCell>
                <mxCell id="13" value="入力されたニックネームと&lt;br&gt;その交通系ICを紐付ける" style="rounded=0;whiteSpace=wrap;html=1;fillColor=none;strokeColor=#3399FF;fontColor=#007FFF;" vertex="1" parent="1">
                    <mxGeometry x="170" y="280" width="160" height="40" as="geometry"/>
                </mxCell>
                <mxCell id="15" value="" style="endArrow=classic;html=1;exitX=0.5;exitY=1;exitDx=0;exitDy=0;entryX=0.5;entryY=0;entryDx=0;entryDy=0;fillColor=none;strokeColor=#3399FF;fontColor=#007FFF;" edge="1" parent="1" source="3" target="5">
                    <mxGeometry width="50" height="50" relative="1" as="geometry">
                        <mxPoint x="410" y="200" as="sourcePoint"/>
                        <mxPoint x="460" y="150" as="targetPoint"/>
                        <Array as="points">
                            <mxPoint x="425" y="150"/>
                            <mxPoint x="605" y="150"/>
                        </Array>
                    </mxGeometry>
                </mxCell>
                <mxCell id="16" value="" style="endArrow=classic;html=1;exitX=0;exitY=0.5;exitDx=0;exitDy=0;entryX=0.5;entryY=0;entryDx=0;entryDy=0;fillColor=none;strokeColor=#3399FF;fontColor=#007FFF;" edge="1" parent="1" source="3" target="8">
                    <mxGeometry width="50" height="50" relative="1" as="geometry">
                        <mxPoint x="210" y="150" as="sourcePoint"/>
                        <mxPoint x="260" y="100" as="targetPoint"/>
                        <Array as="points">
                            <mxPoint x="250" y="100"/>
                        </Array>
                    </mxGeometry>
                </mxCell>
                <mxCell id="17" value="" style="rounded=1;whiteSpace=wrap;html=1;fillColor=none;strokeColor=#3399FF;fontColor=#007FFF;" vertex="1" parent="1">
                    <mxGeometry x="383" y="610" width="85" height="20" as="geometry"/>
                </mxCell>
                <mxCell id="22" style="edgeStyle=orthogonalEdgeStyle;rounded=0;orthogonalLoop=1;jettySize=auto;html=1;entryX=0.5;entryY=0;entryDx=0;entryDy=0;fillColor=none;strokeColor=#3399FF;fontColor=#007FFF;" edge="1" parent="1" source="18" target="17">
                    <mxGeometry relative="1" as="geometry"/>
                </mxCell>
                <mxCell id="18" value="slackにメッセージを送信" style="rounded=0;whiteSpace=wrap;html=1;fillColor=none;strokeColor=#3399FF;fontColor=#007FFF;" vertex="1" parent="1">
                    <mxGeometry x="365" y="480" width="120" height="40" as="geometry"/>
                </mxCell>
                <mxCell id="19" value="" style="endArrow=classic;html=1;exitX=0.5;exitY=1;exitDx=0;exitDy=0;entryX=0.312;entryY=-0.061;entryDx=0;entryDy=0;entryPerimeter=0;fillColor=none;strokeColor=#3399FF;fontColor=#007FFF;" edge="1" parent="1" source="9" target="18">
                    <mxGeometry width="50" height="50" relative="1" as="geometry">
                        <mxPoint x="260" y="520" as="sourcePoint"/>
                        <mxPoint x="310" y="470" as="targetPoint"/>
                        <Array as="points">
                            <mxPoint x="355" y="450"/>
                            <mxPoint x="402" y="450"/>
                        </Array>
                    </mxGeometry>
                </mxCell>
                <mxCell id="20" value="" style="endArrow=classic;html=1;exitX=0.5;exitY=1;exitDx=0;exitDy=0;entryX=0.458;entryY=0;entryDx=0;entryDy=0;entryPerimeter=0;fillColor=none;strokeColor=#3399FF;fontColor=#007FFF;" edge="1" parent="1" source="7" target="18">
                    <mxGeometry width="50" height="50" relative="1" as="geometry">
                        <mxPoint x="570" y="540" as="sourcePoint"/>
                        <mxPoint x="620" y="490" as="targetPoint"/>
                        <Array as="points">
                            <mxPoint x="510" y="440"/>
                            <mxPoint x="420" y="440"/>
                        </Array>
                    </mxGeometry>
                </mxCell>
                <mxCell id="21" value="" style="endArrow=classic;html=1;exitX=0.5;exitY=1;exitDx=0;exitDy=0;entryX=0.631;entryY=0.011;entryDx=0;entryDy=0;entryPerimeter=0;fillColor=none;strokeColor=#3399FF;fontColor=#007FFF;" edge="1" parent="1" source="6" target="18">
                    <mxGeometry width="50" height="50" relative="1" as="geometry">
                        <mxPoint x="620" y="570" as="sourcePoint"/>
                        <mxPoint x="670" y="520" as="targetPoint"/>
                        <Array as="points">
                            <mxPoint x="605" y="450"/>
                            <mxPoint x="441" y="450"/>
                        </Array>
                    </mxGeometry>
                </mxCell>
                <mxCell id="23" value="" style="endArrow=classic;html=1;exitX=0.5;exitY=1;exitDx=0;exitDy=0;entryX=0.242;entryY=-0.164;entryDx=0;entryDy=0;entryPerimeter=0;fillColor=none;strokeColor=#3399FF;fontColor=#007FFF;" edge="1" parent="1" source="13" target="17">
                    <mxGeometry width="50" height="50" relative="1" as="geometry">
                        <mxPoint x="160" y="500" as="sourcePoint"/>
                        <mxPoint x="210" y="450" as="targetPoint"/>
                        <Array as="points">
                            <mxPoint x="250" y="560"/>
                            <mxPoint x="404" y="560"/>
                        </Array>
                    </mxGeometry>
                </mxCell>
                <mxCell id="24" value="YES" style="text;html=1;strokeColor=none;fillColor=none;align=center;verticalAlign=middle;whiteSpace=wrap;rounded=0;fontColor=#007FFF;fontSize=10;" vertex="1" parent="1">
                    <mxGeometry x="425" y="120" width="40" height="20" as="geometry"/>
                </mxCell>
                <mxCell id="25" value="YES" style="text;html=1;strokeColor=none;fillColor=none;align=center;verticalAlign=middle;whiteSpace=wrap;rounded=0;fontColor=#007FFF;fontSize=10;" vertex="1" parent="1">
                    <mxGeometry x="600" y="250" width="40" height="20" as="geometry"/>
                </mxCell>
                <mxCell id="26" value="YES" style="text;html=1;strokeColor=none;fillColor=none;align=center;verticalAlign=middle;whiteSpace=wrap;rounded=0;fontColor=#007FFF;fontSize=10;" vertex="1" parent="1">
                    <mxGeometry x="250" y="240" width="40" height="20" as="geometry"/>
                </mxCell>
                <mxCell id="27" value="NO" style="text;html=1;strokeColor=none;fillColor=none;align=center;verticalAlign=middle;whiteSpace=wrap;rounded=0;fontColor=#007FFF;fontSize=10;" vertex="1" parent="1">
                    <mxGeometry x="340" y="200" width="40" height="20" as="geometry"/>
                </mxCell>
                <mxCell id="28" value="NO" style="text;html=1;strokeColor=none;fillColor=none;align=center;verticalAlign=middle;whiteSpace=wrap;rounded=0;fontColor=#007FFF;fontSize=10;" vertex="1" parent="1">
                    <mxGeometry x="480" y="210" width="40" height="20" as="geometry"/>
                </mxCell>
            </root>
        </mxGraphModel>
    </diagram>
</mxfile>